# xmcd CD database file
#
# Track frame offsets:
#	150
#	13159
#	26752
#	37932
#	50877
#	63637
#	77287
#	89312
#	102372
#	115682
#	127280
#	138672
#	150007
#	162090
#	174562
#	186087
#	196834
#	208672
#	220040
#	230657
#
# Disc length: 3251 seconds
#
# Revision: 0
# Processed by: cddbd v1.5.1PL0 Copyright (c) Steve Scherf et al.
# Submitted via: CDex 1.51
#
DISCID=100cb114
DTITLE=Robert Johnson - The King Of Delta Blues
DYEAR=1900
DGENRE=Blues
TTITLE0=Rambling On My  Mind
TTITLE1=Sweet Home Chicago
TTITLE2=Kindhearted Woman Blues
TTITLE3=When You Got AGood Friend
TTITLE4=Come On In My Kitchen
TTITLE5=Terraplane Blues
TTITLE6=Phonograph Blues
TTITLE7=32 - 20 Blues
TTITLE8=The're Red Hot
TTITLE9=Dead Shrimp Blues
TTITLE10=Cross Road Blues
TTITLE11=Walking Blues
TTITLE12=Last Fair Deal Gone Down
TTITLE13=Preaching Blues
TTITLE14=I'm A Steady Rollin' Man
TTITLE15=From Four Till Late
TTITLE16=Hellhound On My Trail
TTITLE17=Me And The Devil Blues
TTITLE18=Stop Breakin' Down Blues
TTITLE19=I Believe I'll Dust My Broom
EXTD=
EXTT0=
EXTT1=
EXTT2=
EXTT3=
EXTT4=
EXTT5=
EXTT6=
EXTT7=
EXTT8=
EXTT9=
EXTT10=
EXTT11=
EXTT12=
EXTT13=
EXTT14=
EXTT15=
EXTT16=
EXTT17=
EXTT18=
EXTT19=
PLAYORDER=
